<svg xmlns="http://www.w3.org/2000/svg" width="1024" height="1024" viewBox="0 0 1024 1024">
<g>
<path d="M 311.00 795.93 L 311.00 1024.00 L 0.00 1024.00 L 0.00 0.00 L 311.00 0.00 L 311.00 220.57 C311.00,375.28 311.32,441.73 312.07,443.13 C312.92,444.73 313.43,444.89 314.57,443.94 C315.50,443.17 316.00,443.12 316.00,443.82 C316.00,444.40 315.61,445.12 315.13,445.42 C314.65,445.71 313.95,448.55 313.56,451.73 C313.18,454.90 312.32,459.08 311.65,461.00 C310.80,463.48 310.73,465.76 311.41,468.83 C312.13,472.06 312.06,473.35 311.13,473.92 C309.40,474.99 307.66,487.88 309.02,489.53 C309.70,490.35 310.00,498.19 309.85,511.65 C309.69,526.27 309.98,533.15 310.81,534.68 C311.46,535.89 312.00,538.47 312.00,540.43 C312.00,542.40 312.39,544.00 312.86,544.00 C313.33,544.00 314.00,547.12 314.36,550.94 C314.71,554.75 315.41,558.95 315.91,560.27 C316.92,562.92 315.82,565.63 314.16,564.60 C313.58,564.24 312.63,564.83 312.05,565.91 C311.33,567.26 311.00,638.54 311.00,795.93 Z" fill="rgb(7,7,29)"/>
<path d="M 311.00 795.93 C311.00,638.54 311.33,567.26 312.05,565.91 C312.63,564.83 313.58,564.24 314.16,564.60 C315.82,565.63 316.92,562.92 315.91,560.27 C315.41,558.95 314.71,554.75 314.36,550.94 C314.00,547.12 313.33,544.00 312.86,544.00 C312.39,544.00 312.00,542.40 312.00,540.43 C312.00,538.47 311.46,535.89 310.81,534.68 C309.98,533.15 309.69,526.27 309.85,511.65 C310.00,498.19 309.70,490.35 309.02,489.53 C307.66,487.88 309.40,474.99 311.13,473.92 C312.06,473.35 312.13,472.06 311.41,468.83 C310.73,465.76 310.80,463.48 311.65,461.00 C312.32,459.08 313.18,454.90 313.56,451.73 C313.95,448.55 314.65,445.71 315.13,445.42 C315.61,445.12 316.00,444.40 316.00,443.82 C316.00,443.12 315.50,443.17 314.57,443.94 C313.43,444.89 312.92,444.73 312.07,443.13 C311.32,441.73 311.00,375.28 311.00,220.57 L 311.00 0.00 L 664.00 0.00 L 664.00 177.36 C664.00,274.91 663.71,356.81 663.36,359.36 C662.97,362.26 662.22,364.00 661.39,364.00 C660.65,364.00 655.42,359.39 649.76,353.75 C644.11,348.11 636.79,341.48 633.49,339.00 C630.20,336.52 627.35,334.16 627.17,333.75 C626.98,333.34 626.27,333.00 625.57,333.00 C624.88,333.00 623.52,332.13 622.56,331.07 C621.60,330.01 619.40,328.43 617.66,327.56 C615.92,326.69 612.70,324.87 610.50,323.52 C602.37,318.53 582.87,309.61 578.00,308.66 C576.62,308.40 571.00,306.62 565.50,304.71 C550.04,299.36 536.23,297.52 511.40,297.51 C497.11,297.50 489.85,297.87 488.90,298.64 C488.13,299.26 485.02,300.09 482.00,300.46 C472.29,301.67 452.89,306.90 444.50,310.57 C442.85,311.29 438.58,313.05 435.00,314.49 C424.51,318.72 415.56,323.51 405.88,330.08 C402.71,332.24 399.83,334.00 399.49,334.00 C398.74,334.00 394.09,337.72 381.07,348.72 C368.83,359.07 353.01,377.30 343.61,391.90 C339.51,398.26 328.56,419.74 326.72,425.00 C325.86,427.48 324.18,432.20 322.97,435.50 C320.03,443.57 317.25,454.33 314.83,467.00 C312.15,481.04 311.84,523.09 314.33,533.74 C315.20,537.46 316.64,543.88 317.52,548.00 C320.72,562.99 321.38,565.12 326.11,575.74 C327.15,578.07 328.00,580.42 328.00,580.96 C328.00,581.50 328.90,583.54 330.00,585.50 C331.10,587.46 332.00,589.43 332.00,589.88 C332.00,591.59 343.53,611.76 347.92,617.73 C350.44,621.16 353.80,625.81 355.39,628.08 C358.93,633.13 359.42,633.08 374.35,626.07 C380.29,623.28 385.70,621.00 386.38,621.00 C387.05,621.00 388.03,620.61 388.55,620.12 C389.50,619.25 402.69,614.25 406.50,613.32 C407.60,613.05 409.40,612.46 410.50,612.01 C416.80,609.41 421.91,607.63 425.00,606.95 C426.92,606.53 430.98,605.51 434.00,604.68 C437.02,603.86 443.77,602.21 449.00,601.02 C454.23,599.83 460.30,598.44 462.50,597.93 C481.27,593.59 544.16,593.01 542.77,597.19 C542.31,598.58 534.46,603.06 521.50,609.36 C507.37,616.22 501.23,619.00 500.20,619.00 C499.75,619.00 497.51,619.90 495.24,621.00 C492.96,622.10 490.71,623.00 490.24,623.00 C489.76,623.00 487.60,623.84 485.44,624.87 C480.85,627.06 474.44,629.26 456.50,634.81 C433.10,642.06 412.30,646.22 390.00,648.10 C382.58,648.72 376.30,649.42 376.06,649.64 C375.35,650.30 385.13,659.92 389.88,663.22 L 394.26 666.27 L 406.38 664.54 C413.04,663.59 421.20,662.42 424.50,661.94 C427.80,661.47 433.11,660.39 436.30,659.54 C439.49,658.69 442.85,658.00 443.77,658.00 C444.69,658.00 448.61,657.07 452.47,655.93 C456.34,654.80 462.65,652.94 466.50,651.81 C470.35,650.69 474.40,649.39 475.50,648.93 C476.60,648.48 481.63,646.73 486.67,645.04 C491.71,643.35 497.11,641.30 498.67,640.49 C500.23,639.68 501.91,639.01 502.41,639.01 C503.20,639.00 508.55,636.70 526.00,628.83 C532.89,625.73 557.06,613.52 561.00,611.16 C562.92,610.00 566.08,608.23 568.00,607.22 C573.67,604.24 576.29,602.65 580.00,599.96 C581.92,598.56 584.62,596.87 586.00,596.21 C587.38,595.54 590.53,593.46 593.00,591.57 C595.47,589.68 597.83,588.10 598.24,588.07 C598.91,588.01 605.88,583.01 610.26,579.43 C611.23,578.65 612.25,578.00 612.53,578.00 C613.00,578.00 624.91,568.94 627.64,566.51 C628.26,565.95 632.06,563.03 636.08,560.00 C643.34,554.54 645.13,553.01 652.72,545.71 C656.29,542.28 663.12,539.37 661.52,541.97 C661.17,542.53 661.36,543.00 661.94,543.00 C662.52,543.00 663.00,542.55 663.00,542.00 C663.00,541.45 663.77,541.00 664.70,541.00 C665.89,541.00 666.08,541.32 665.35,542.05 C664.02,543.38 664.86,548.20 666.27,547.33 C667.52,546.56 666.42,548.63 664.10,551.42 C663.22,552.48 663.06,553.01 663.75,552.61 C665.77,551.43 665.18,553.11 662.87,555.11 C661.70,556.13 660.28,556.67 659.72,556.32 C659.15,555.98 658.97,556.14 659.31,556.69 C660.06,557.91 651.32,566.67 634.84,581.22 C623.53,591.20 586.54,618.00 584.07,618.00 C583.48,618.00 583.00,618.34 583.00,618.75 C583.00,619.17 580.86,620.62 578.25,621.98 C575.64,623.34 573.28,624.69 573.00,624.98 C571.73,626.31 555.12,635.25 543.03,641.11 C537.27,643.90 531.42,646.95 530.03,647.89 C528.64,648.84 525.47,650.45 523.00,651.48 C520.53,652.51 516.12,654.40 513.22,655.68 C510.32,656.95 507.63,658.00 507.24,658.00 C506.64,658.00 500.59,660.23 493.50,663.07 C492.40,663.51 489.70,664.44 487.50,665.14 C485.30,665.84 483.07,666.77 482.55,667.20 C482.03,667.64 480.68,668.01 479.55,668.01 C478.42,668.02 475.48,668.76 473.00,669.66 C470.52,670.55 466.70,671.64 464.50,672.07 C462.30,672.50 458.70,673.37 456.50,674.00 C454.30,674.63 450.59,675.57 448.25,676.08 C445.91,676.58 441.86,677.46 439.25,678.03 C436.64,678.59 432.25,679.29 429.50,679.58 C421.90,680.39 420.00,680.92 420.00,682.27 C420.01,683.31 434.26,691.05 441.75,694.09 C442.99,694.59 445.01,695.42 446.25,695.93 C447.49,696.45 450.30,697.41 452.50,698.07 C454.70,698.74 457.40,699.63 458.50,700.06 C459.60,700.48 461.62,701.13 463.00,701.48 C464.38,701.84 467.08,702.58 469.00,703.12 C476.45,705.22 504.12,708.89 513.00,708.96 C520.23,709.01 531.04,707.88 541.50,705.97 C544.25,705.47 549.65,704.55 553.50,703.92 C557.35,703.29 561.40,702.40 562.50,701.94 C563.60,701.48 567.65,700.12 571.50,698.92 C594.44,691.77 621.27,676.65 636.88,662.08 C639.28,659.84 641.43,658.00 641.65,658.00 C642.75,658.00 654.00,646.44 654.00,645.31 C654.00,644.58 655.10,644.00 656.50,644.00 C658.28,644.00 659.00,643.46 659.00,642.12 C659.00,641.09 659.67,639.68 660.50,639.00 C661.71,638.00 662.00,638.02 662.02,639.13 C662.03,640.23 662.21,640.21 662.95,639.04 C663.57,638.07 663.82,639.57 663.70,643.54 C663.60,646.82 663.62,733.76 663.76,836.75 L 664.00 1024.00 L 311.00 1024.00 ZM 382.70 610.86 C377.53,612.97 375.43,612.30 371.34,607.25 C367.77,602.83 366.30,600.62 363.57,595.49 C362.98,594.38 361.54,592.13 360.37,590.49 C358.52,587.89 353.00,576.64 349.83,569.00 C349.26,567.62 348.21,565.15 347.50,563.50 C345.69,559.31 342.29,547.81 340.41,539.50 C338.02,528.97 337.14,519.10 337.13,502.50 C337.10,481.52 338.79,469.17 344.10,451.50 C346.15,444.67 346.66,443.32 350.80,434.00 C351.89,431.52 353.58,427.70 354.54,425.50 C356.20,421.69 363.81,408.30 367.00,403.59 C367.83,402.37 369.40,400.03 370.50,398.40 C380.29,383.86 399.78,364.99 416.91,353.46 C419.33,351.83 422.48,349.72 423.91,348.76 C425.33,347.80 427.62,346.48 429.00,345.81 C430.38,345.14 432.62,343.87 434.00,342.97 C437.19,340.89 459.23,331.52 464.50,330.00 C476.80,326.45 482.84,325.17 493.50,323.82 C508.14,321.97 539.67,322.85 551.50,325.45 C565.93,328.62 571.15,330.04 572.45,331.17 C572.97,331.63 574.44,332.00 575.71,332.00 C576.99,332.00 578.81,332.42 579.76,332.93 C580.72,333.44 587.80,336.89 595.50,340.59 C608.52,346.85 621.06,354.27 621.83,356.18 C622.02,356.63 622.80,357.00 623.57,357.00 C624.34,357.00 627.08,359.02 629.66,361.50 C632.24,363.98 634.78,366.00 635.30,366.00 C636.15,366.00 643.60,373.40 653.25,383.83 C655.31,386.06 657.00,388.61 657.00,389.50 C657.00,390.39 657.38,390.88 657.85,390.59 C658.32,390.30 659.73,391.15 660.97,392.47 C663.55,395.22 664.62,401.17 662.38,400.31 C661.63,400.03 661.30,399.32 661.66,398.74 C662.04,398.13 661.83,397.99 661.15,398.40 C659.39,399.50 659.78,400.98 662.05,401.82 C664.09,402.58 664.11,403.02 664.03,453.29 C663.98,481.19 663.55,505.04 663.07,506.31 C662.59,507.57 662.52,509.26 662.92,510.05 C663.31,510.85 663.61,511.95 663.57,512.50 C663.45,514.13 642.73,533.21 637.37,536.63 C635.79,537.63 634.28,538.71 634.00,539.03 C633.72,539.34 631.92,540.68 630.00,542.00 C628.08,543.32 626.28,544.66 626.00,544.98 C625.30,545.79 605.47,560.33 602.11,562.50 C601.25,563.05 597.30,565.64 593.32,568.25 C589.35,570.86 585.69,573.00 585.20,573.00 C584.71,573.00 583.50,573.90 582.50,575.00 C581.50,576.10 580.27,577.00 579.75,577.00 C579.23,577.00 577.61,577.85 576.15,578.88 C567.66,584.91 561.46,586.63 560.38,583.25 C555.46,567.91 547.12,557.70 534.50,551.58 C524.61,546.78 521.47,546.00 512.00,546.00 C502.44,546.00 499.43,546.76 489.02,551.81 C479.01,556.66 473.58,562.50 468.66,573.73 C466.54,578.56 464.50,583.13 464.12,583.89 C463.33,585.46 457.65,587.24 448.00,588.96 C441.16,590.18 440.02,590.47 428.00,594.00 C418.81,596.70 412.46,598.84 408.50,600.56 C406.85,601.27 402.35,603.07 398.50,604.55 C394.65,606.03 390.15,607.80 388.50,608.48 C386.85,609.16 384.24,610.23 382.70,610.86 ZM 508.18 521.71 C509.35,523.13 512.83,523.40 514.69,522.21 C517.29,520.56 518.00,515.29 518.00,497.59 C518.00,480.28 518.11,479.21 520.10,477.41 C526.43,471.68 526.55,464.57 520.41,457.98 L 518.07 455.46 L 517.79 417.76 C517.50,380.65 517.47,380.02 515.34,377.90 C512.75,375.31 508.48,375.91 507.50,379.00 C507.15,380.10 506.73,397.68 506.56,418.06 L 506.26 455.12 L 503.75 457.81 C500.44,461.36 499.00,464.29 499.00,467.48 C499.00,470.75 501.37,475.45 503.93,477.24 C505.71,478.48 505.92,480.34 506.49,499.51 C506.86,511.95 507.54,520.95 508.18,521.71 ZM 625.15 467.11 C625.89,467.58 631.96,467.98 638.63,467.98 C648.30,468.00 651.01,467.69 652.02,466.47 C653.08,465.20 652.89,464.51 650.90,462.40 C648.72,460.07 647.99,459.90 642.51,460.38 C628.11,461.65 624.53,462.43 624.16,464.38 C623.96,465.41 624.41,466.64 625.15,467.11 ZM 510.39 364.82 C511.75,367.03 513.46,365.50 514.19,361.42 C514.57,359.26 514.91,353.56 514.94,348.75 L 515.00 340.00 L 508.75 340.00 L 509.17 351.77 C509.40,358.24 509.95,364.11 510.39,364.82 ZM 375.75 467.37 C376.71,467.65 380.15,467.69 383.40,467.44 C386.64,467.20 391.48,467.00 394.15,467.00 C398.32,467.00 399.00,466.72 399.00,465.02 C399.00,462.65 397.67,462.32 385.43,461.59 C375.99,461.03 374.00,461.64 374.00,465.13 C374.00,466.08 374.79,467.09 375.75,467.37 ZM 566.48 571.93 C567.30,574.52 570.34,574.60 573.85,572.12 C575.31,571.09 579.85,568.60 583.95,566.58 C588.05,564.56 591.99,562.42 592.70,561.83 C594.60,560.25 594.29,559.00 591.99,559.00 C590.16,559.00 588.48,559.66 584.00,562.14 C580.15,564.27 575.23,566.21 572.48,566.67 C568.00,567.43 565.69,569.46 566.48,571.93 ZM 452.48 573.13 C454.04,574.62 456.47,573.66 456.79,571.43 C457.04,569.70 455.51,568.73 446.79,565.13 C441.13,562.79 435.72,560.46 434.76,559.94 C432.67,558.81 430.00,558.71 430.00,559.76 C430.00,560.72 431.45,561.61 442.50,567.45 C447.45,570.06 451.94,572.62 452.48,573.13 ZM 532.34 539.43 C532.67,540.29 533.74,541.00 534.72,540.99 C536.07,540.99 537.08,539.11 538.87,533.24 C540.18,528.99 541.71,524.09 542.28,522.38 C542.85,520.66 542.98,518.41 542.58,517.38 C542.00,515.88 541.24,516.82 538.83,522.00 C537.16,525.58 535.46,529.40 535.03,530.50 C534.61,531.60 533.70,533.71 533.00,535.18 C532.30,536.66 532.00,538.57 532.34,539.43 ZM 590.00 396.48 C590.00,399.64 593.68,397.77 600.22,391.28 C606.79,384.76 608.26,381.90 605.83,380.39 C604.43,379.53 590.00,394.20 590.00,396.48 ZM 486.06 536.75 C486.93,539.69 487.87,541.00 489.10,541.00 C491.56,541.00 492.43,539.22 491.22,536.65 C490.27,534.65 489.36,532.57 484.46,521.25 C483.44,518.91 482.25,517.00 481.81,517.00 C480.64,517.00 480.81,521.76 482.00,522.50 C482.55,522.84 483.00,524.20 483.00,525.51 C483.00,526.83 483.40,528.94 483.90,530.20 C484.39,531.47 485.36,534.41 486.06,536.75 ZM 423.91 390.84 C430.47,397.64 433.14,399.20 434.48,397.04 C435.34,395.64 421.09,381.00 418.87,381.00 C415.56,381.00 416.85,383.52 423.91,390.84 ZM 554.75 553.44 C555.64,554.35 568.00,541.17 568.00,539.30 C568.00,537.03 566.50,537.86 560.17,543.58 C554.43,548.77 552.91,551.55 554.75,553.44 ZM 462.62 546.87 C467.87,552.67 469.90,553.80 470.71,551.38 C471.01,550.46 461.13,540.35 458.25,538.63 C455.13,536.77 457.48,541.18 462.62,546.87 ZM 672.39 539.42 C672.06,540.29 670.64,541.00 669.22,541.00 L 666.65 541.00 L 668.83 538.69 C670.02,537.41 671.00,535.84 671.00,535.19 C671.00,534.53 671.45,534.00 672.00,534.00 C673.11,534.00 673.33,536.98 672.39,539.42 Z" fill="rgb(25,24,98)"/>
<path d="M 1024.00 1024.00 L 664.00 1024.00 L 663.76 836.75 C663.62,733.76 663.60,646.82 663.70,643.54 C663.82,639.57 663.57,638.07 662.95,639.04 C662.21,640.21 662.03,640.23 662.02,639.13 C662.00,638.02 661.71,638.00 660.50,639.00 C659.67,639.68 659.00,641.09 659.00,642.12 C659.00,643.46 658.28,644.00 656.50,644.00 C655.10,644.00 654.00,644.58 654.00,645.31 C654.00,646.44 642.75,658.00 641.65,658.00 C641.43,658.00 639.28,659.84 636.88,662.08 C621.27,676.65 594.44,691.77 571.50,698.92 C567.65,700.12 563.60,701.48 562.50,701.94 C561.45,702.38 557.71,703.21 554.03,703.83 C554.63,703.61 555.09,703.39 555.41,703.15 C556.01,702.69 558.75,701.72 561.50,701.00 C564.25,700.28 566.95,699.39 567.50,699.02 C568.05,698.66 570.53,697.77 573.00,697.05 C575.47,696.33 579.41,694.90 581.74,693.87 C584.07,692.84 586.29,692.00 586.67,692.00 C588.51,692.00 616.76,676.77 618.00,675.10 C618.28,674.73 621.59,672.25 625.36,669.59 C633.16,664.08 653.44,644.75 658.49,638.00 C660.35,635.53 663.27,631.70 664.99,629.50 C673.42,618.71 685.03,597.69 691.24,582.00 C691.79,580.62 692.63,578.72 693.12,577.76 C693.60,576.81 694.00,575.15 694.00,574.07 C694.00,573.00 694.40,571.87 694.89,571.57 C695.38,571.27 696.01,569.55 696.30,567.76 C696.58,565.97 697.34,562.70 697.97,560.50 C702.71,544.17 706.56,514.08 704.11,512.57 C703.61,512.26 701.91,513.60 700.35,515.56 C698.78,517.51 695.46,521.45 692.96,524.30 C690.46,527.16 687.12,531.30 685.53,533.50 C678.11,543.77 625.33,593.09 618.65,596.00 C618.02,596.28 613.88,599.20 609.46,602.50 C601.85,608.18 591.49,614.98 573.59,626.05 C564.46,631.69 521.67,653.00 519.46,653.00 C519.44,653.00 519.41,653.00 519.37,653.01 C520.74,652.43 522.02,651.89 523.00,651.48 C525.47,650.45 528.64,648.84 530.03,647.89 C531.42,646.95 537.27,643.90 543.03,641.11 C555.12,635.25 571.73,626.31 573.00,624.98 C573.28,624.69 575.64,623.34 578.25,621.98 C580.86,620.62 583.00,619.17 583.00,618.75 C583.00,618.34 583.48,618.00 584.07,618.00 C586.54,618.00 623.53,591.20 634.84,581.22 C651.32,566.67 660.06,557.91 659.31,556.69 C658.97,556.14 659.15,555.98 659.72,556.32 C660.28,556.67 661.70,556.13 662.87,555.11 C665.18,553.11 665.77,551.43 663.75,552.61 C663.06,553.01 663.22,552.48 664.10,551.42 C666.42,548.63 667.52,546.56 666.27,547.33 C664.86,548.20 664.02,543.38 665.35,542.05 C666.08,541.32 665.89,541.00 664.70,541.00 C663.77,541.00 663.00,541.45 663.00,542.00 C663.00,542.55 662.52,543.00 661.94,543.00 C661.36,543.00 661.17,542.53 661.52,541.97 C663.12,539.37 656.29,542.28 652.72,545.71 C645.13,553.01 643.34,554.54 636.08,560.00 C632.06,563.03 628.26,565.95 627.64,566.51 C624.91,568.94 613.00,578.00 612.53,578.00 C612.25,578.00 611.23,578.65 610.26,579.43 C605.88,583.01 598.91,588.01 598.24,588.07 C597.83,588.10 595.47,589.68 593.00,591.57 C590.53,593.46 587.38,595.54 586.00,596.21 C584.62,596.87 581.92,598.56 580.00,599.96 C576.29,602.65 573.67,604.24 568.00,607.22 C566.08,608.23 562.92,610.00 561.00,611.16 C557.06,613.52 532.89,625.73 526.00,628.83 C525.15,629.21 524.34,629.58 523.55,629.94 C525.55,628.98 527.03,628.20 528.41,627.38 C530.66,626.06 537.25,622.55 543.05,619.58 C548.85,616.61 556.05,612.73 559.05,610.95 C565.00,607.42 568.99,605.13 574.75,601.90 C576.81,600.75 579.43,598.95 580.56,597.90 C581.70,596.86 582.99,596.00 583.42,596.00 C584.28,596.00 594.49,589.29 605.63,581.42 C612.20,576.77 639.96,555.33 641.00,554.09 C641.28,553.77 643.53,551.75 646.00,549.61 C651.69,544.70 676.73,520.16 683.99,512.38 C696.45,499.03 721.10,468.41 723.82,462.90 C724.55,461.43 725.90,459.39 726.83,458.36 C728.81,456.18 731.70,451.89 735.85,445.01 C738.72,440.23 734.76,444.03 723.86,456.49 C708.41,474.16 681.35,501.72 671.00,510.34 C666.33,514.23 662.28,517.71 662.00,518.08 C661.12,519.25 640.59,536.14 638.00,537.83 C636.62,538.72 635.28,539.70 635.00,540.00 C632.28,542.94 611.93,557.15 583.95,575.65 C581.99,576.94 579.89,578.00 579.28,578.00 C578.67,578.00 578.02,578.36 577.83,578.79 C577.15,580.42 566.88,586.00 564.57,586.00 C560.90,586.00 559.00,584.97 559.00,582.99 C559.00,582.00 558.04,579.23 556.86,576.84 C555.68,574.46 554.23,571.45 553.65,570.17 C553.06,568.89 549.85,565.05 546.52,561.63 C540.58,555.55 531.40,550.05 524.50,548.44 C518.63,547.08 504.54,546.83 500.51,548.03 C485.67,552.42 474.08,562.13 468.12,575.15 C467.34,576.84 466.57,578.52 465.91,579.95 C466.70,578.17 467.67,575.98 468.66,573.73 C473.58,562.50 479.01,556.66 489.02,551.81 C499.43,546.76 502.44,546.00 512.00,546.00 C521.47,546.00 524.61,546.78 534.50,551.58 C547.12,557.70 555.46,567.91 560.38,583.25 C561.46,586.63 567.66,584.91 576.15,578.88 C577.61,577.85 579.23,577.00 579.75,577.00 C580.27,577.00 581.50,576.10 582.50,575.00 C583.50,573.90 584.71,573.00 585.20,573.00 C585.69,573.00 589.35,570.86 593.32,568.25 C597.30,565.64 601.25,563.05 602.11,562.50 C605.47,560.33 625.30,545.79 626.00,544.98 C626.28,544.66 628.08,543.32 630.00,542.00 C631.92,540.68 633.72,539.34 634.00,539.03 C634.28,538.71 635.79,537.63 637.37,536.63 C642.73,533.21 663.45,514.13 663.57,512.50 C663.61,511.95 663.31,510.85 662.92,510.05 C662.52,509.26 662.59,507.57 663.07,506.31 C663.55,505.04 663.98,481.19 664.03,453.29 C664.11,403.02 664.09,402.58 662.05,401.82 C659.78,400.98 659.39,399.50 661.15,398.40 C661.83,397.99 662.04,398.13 661.66,398.74 C661.30,399.32 661.63,400.03 662.38,400.31 C664.62,401.17 663.55,395.22 660.97,392.47 C659.73,391.15 658.32,390.30 657.85,390.59 C657.38,390.88 657.00,390.39 657.00,389.50 C657.00,388.61 655.31,386.06 653.25,383.83 C643.60,373.40 636.15,366.00 635.30,366.00 C634.78,366.00 632.24,363.98 629.66,361.50 C627.08,359.02 624.34,357.00 623.57,357.00 C622.80,357.00 622.02,356.63 621.83,356.18 C621.06,354.27 608.52,346.85 595.50,340.59 C589.25,337.59 583.40,334.75 580.91,333.51 C582.73,334.28 585.08,335.16 587.31,335.88 C598.33,339.42 618.53,350.80 629.58,359.69 C640.86,368.77 650.50,377.77 657.85,386.07 C667.37,396.83 679.97,415.20 684.90,425.50 C692.30,440.97 693.99,444.85 696.93,453.00 L 699.99 461.50 L 699.64 456.00 C699.45,452.98 698.53,447.58 697.61,444.00 C693.40,427.79 692.66,425.42 689.77,419.00 C688.66,416.52 687.40,413.60 686.97,412.50 C684.92,407.24 679.17,395.94 676.02,391.00 C674.10,387.98 672.07,384.77 671.51,383.88 C658.94,363.75 635.47,340.51 615.14,328.04 C611.96,326.09 608.49,323.93 607.43,323.24 C604.72,321.46 587.65,313.01 586.78,313.01 C586.38,313.00 583.08,311.64 579.44,309.97 C575.81,308.31 570.74,306.47 568.17,305.87 C565.60,305.28 561.92,304.42 560.00,303.96 C541.49,299.54 533.62,298.66 512.50,298.65 C502.33,298.64 490.98,299.10 486.07,299.70 C487.43,299.36 488.49,298.97 488.90,298.64 C489.85,297.87 497.11,297.50 511.40,297.51 C536.23,297.52 550.04,299.36 565.50,304.71 C571.00,306.62 576.62,308.40 578.00,308.66 C582.87,309.61 602.37,318.53 610.50,323.52 C612.70,324.87 615.92,326.69 617.66,327.56 C619.40,328.43 621.60,330.01 622.56,331.07 C623.52,332.13 624.88,333.00 625.57,333.00 C626.27,333.00 626.98,333.34 627.17,333.75 C627.35,334.16 630.20,336.52 633.49,339.00 C636.79,341.48 644.11,348.11 649.76,353.75 C655.42,359.39 660.65,364.00 661.39,364.00 C662.22,364.00 662.97,362.26 663.36,359.36 C663.71,356.81 664.00,274.91 664.00,177.36 L 664.00 0.00 L 1024.00 0.00 ZM 508.18 521.71 C507.54,520.95 506.86,511.95 506.49,499.51 C505.92,480.34 505.71,478.48 503.93,477.24 C501.37,475.45 499.00,470.75 499.00,467.48 C499.00,464.29 500.44,461.36 503.75,457.81 L 506.26 455.12 L 506.56 418.06 C506.73,397.68 507.15,380.10 507.50,379.00 C508.48,375.91 512.75,375.31 515.34,377.90 C517.47,380.02 517.50,380.65 517.79,417.76 L 518.07 455.46 L 520.41 457.98 C526.55,464.57 526.43,471.68 520.10,477.41 C518.11,479.21 518.00,480.28 518.00,497.59 C518.00,515.29 517.29,520.56 514.69,522.21 C512.83,523.40 509.35,523.13 508.18,521.71 ZM 509.20 520.80 C509.86,521.46 511.12,522.00 512.00,522.00 C515.66,522.00 516.00,520.08 516.00,499.72 L 516.00 479.85 L 518.75 477.04 C525.64,470.01 525.60,464.62 518.60,458.08 L 516.00 455.65 L 516.00 378.94 L 513.75 378.09 C512.47,377.60 510.75,377.63 509.75,378.15 C508.13,379.00 508.00,381.91 508.00,417.46 L 508.00 455.85 L 505.56 457.78 C502.12,460.48 499.58,466.20 500.39,469.42 C500.75,470.87 502.61,473.78 504.53,475.90 L 508.00 479.74 L 508.00 499.67 C508.00,513.84 508.35,519.95 509.20,520.80 ZM 761.20 428.95 C762.54,431.10 764.00,430.74 764.00,428.26 C764.00,423.76 769.96,410.31 773.55,406.72 C774.94,405.33 780.29,402.46 785.44,400.35 C794.28,396.71 796.36,395.00 791.93,395.00 C790.85,395.00 789.19,394.58 788.24,394.06 C787.28,393.54 785.30,392.87 783.83,392.56 C777.16,391.16 766.00,378.88 766.00,372.95 C766.00,371.39 765.55,369.84 765.00,369.50 C764.45,369.16 764.00,367.56 764.00,365.94 C764.00,364.32 763.54,363.00 762.98,363.00 C761.91,363.00 761.04,364.89 759.06,371.50 C755.18,384.52 749.40,389.94 734.58,394.48 L 728.67 396.29 L 732.58 397.74 C734.74,398.53 737.40,399.55 738.50,399.99 C739.60,400.43 742.00,401.36 743.82,402.05 C749.00,404.00 755.21,410.96 757.75,417.65 C758.99,420.91 760.00,424.35 760.00,425.30 C760.00,426.25 760.54,427.89 761.20,428.95 ZM 625.15 467.11 C624.41,466.64 623.96,465.41 624.16,464.38 C624.53,462.43 628.11,461.65 642.51,460.38 C647.99,459.90 648.72,460.07 650.90,462.40 C652.89,464.51 653.08,465.20 652.02,466.47 C651.01,467.69 648.30,468.00 638.63,467.98 C631.96,467.98 625.89,467.58 625.15,467.11 ZM 510.39 364.82 C509.95,364.11 509.40,358.24 509.17,351.77 L 508.75 340.00 L 515.00 340.00 L 514.94 348.75 C514.91,353.56 514.57,359.26 514.19,361.42 C513.46,365.50 511.75,367.03 510.39,364.82 ZM 566.48 571.93 C565.69,569.46 568.00,567.43 572.48,566.67 C575.23,566.21 580.15,564.27 584.00,562.14 C588.48,559.66 590.16,559.00 591.99,559.00 C594.29,559.00 594.60,560.25 592.70,561.83 C591.99,562.42 588.05,564.56 583.95,566.58 C579.85,568.60 575.31,571.09 573.85,572.12 C570.34,574.60 567.30,574.52 566.48,571.93 ZM 475.36 596.05 C475.43,596.02 475.51,596.00 475.58,595.97 C477.07,595.40 485.96,594.29 495.34,593.50 C508.92,592.35 515.64,592.28 528.44,593.14 C548.38,594.49 549.74,595.29 540.67,600.37 C537.10,602.37 533.97,604.00 533.71,604.00 C533.46,604.00 528.13,606.41 521.87,609.35 C513.80,613.15 508.65,615.54 505.39,617.00 C508.82,615.46 514.05,612.98 521.50,609.36 C534.46,603.06 542.31,598.58 542.77,597.19 C543.93,593.72 500.79,593.53 475.36,596.05 ZM 532.34 539.43 C532.00,538.57 532.30,536.66 533.00,535.18 C533.70,533.71 534.61,531.60 535.03,530.50 C535.46,529.40 537.16,525.58 538.83,522.00 C541.24,516.82 542.00,515.88 542.58,517.38 C542.98,518.41 542.85,520.66 542.28,522.38 C541.71,524.09 540.18,528.99 538.87,533.24 C537.08,539.11 536.07,540.99 534.72,540.99 C533.74,541.00 532.67,540.29 532.34,539.43 ZM 486.06 536.75 C485.36,534.41 484.39,531.47 483.90,530.20 C483.40,528.94 483.00,526.83 483.00,525.51 C483.00,524.20 482.55,522.84 482.00,522.50 C480.81,521.76 480.64,517.00 481.81,517.00 C482.25,517.00 483.44,518.91 484.46,521.25 C489.36,532.57 490.27,534.65 491.22,536.65 C492.43,539.22 491.56,541.00 489.10,541.00 C487.87,541.00 486.93,539.69 486.06,536.75 ZM 627.01 466.03 C627.83,466.55 633.11,466.98 638.75,466.98 C648.19,467.00 649.00,466.85 649.00,465.08 C649.00,462.46 647.91,462.25 637.00,462.78 C627.36,463.24 624.22,464.26 627.01,466.03 ZM 544.65 705.41 C543.43,705.63 542.34,705.82 541.50,705.97 C531.04,707.88 520.23,709.01 513.00,708.96 C508.11,708.92 497.51,707.79 487.74,706.43 C492.10,706.74 501.33,706.82 514.00,706.65 C527.64,706.47 537.77,706.06 544.65,705.41 ZM 510.62 360.44 C511.09,361.69 511.55,361.79 512.62,360.90 C513.61,360.08 514.00,357.14 514.00,350.38 C514.00,341.67 513.86,341.00 512.00,341.00 C510.15,341.00 510.00,341.67 510.00,349.92 C510.00,354.82 510.28,359.56 510.62,360.44 ZM 567.53 572.05 C567.70,572.33 567.83,572.55 568.02,572.68 C568.70,573.13 570.19,572.38 577.46,568.73 L 577.92 568.50 C590.06,562.40 588.33,560.72 575.43,566.09 C567.72,569.30 566.43,570.27 567.53,572.05 ZM 452.48 573.13 C451.94,572.62 447.45,570.06 442.50,567.45 C431.45,561.61 430.00,560.72 430.00,559.76 C430.00,558.71 432.67,558.81 434.76,559.94 C435.72,560.46 441.13,562.79 446.79,565.13 C446.95,565.20 447.11,565.26 447.26,565.33 C435.59,560.86 434.52,562.65 446.32,568.71 C454.80,573.07 456.29,573.37 456.79,570.82 C456.83,571.01 456.83,571.22 456.79,571.43 C456.47,573.66 454.04,574.62 452.48,573.13 ZM 549.89 325.13 C537.03,322.78 507.52,322.04 493.50,323.82 C490.09,324.25 487.16,324.67 484.34,325.17 C484.96,324.90 485.55,324.59 486.03,324.25 C488.24,322.68 491.44,322.50 516.50,322.50 C540.35,322.50 544.94,322.74 547.50,324.11 C548.13,324.45 548.97,324.80 549.89,325.13 ZM 375.75 467.37 C374.79,467.09 374.00,466.08 374.00,465.13 C374.00,461.64 375.99,461.03 385.43,461.59 C397.67,462.32 399.00,462.65 399.00,465.02 C399.00,466.72 398.32,467.00 394.15,467.00 C392.21,467.00 389.14,467.10 386.36,467.25 C390.42,466.92 394.46,466.39 395.81,465.88 C400.49,464.11 396.70,463.00 385.94,463.00 C375.83,463.00 375.00,463.14 375.00,464.92 C375.00,465.97 375.56,467.08 376.25,467.38 C376.43,467.46 376.78,467.52 377.25,467.56 C376.57,467.52 376.04,467.46 375.75,467.37 ZM 533.74 538.75 C535.06,542.62 538.56,536.31 539.41,528.50 C540.05,522.69 540.02,522.59 538.57,525.50 C535.42,531.79 533.33,537.55 533.74,538.75 ZM 486.73 536.25 C488.34,540.30 490.00,541.21 490.00,538.03 C490.00,536.07 487.06,528.94 485.87,528.00 C485.52,527.72 484.98,526.60 484.67,525.50 C484.36,524.40 484.36,525.53 484.67,528.00 C484.98,530.47 485.91,534.19 486.73,536.25 ZM 382.70 610.86 C384.24,610.23 386.85,609.16 388.50,608.48 C389.89,607.91 393.28,606.57 396.61,605.28 C392.84,606.81 387.93,609.02 384.80,610.60 C381.12,612.47 377.61,614.00 377.00,614.00 C375.65,614.00 371.08,608.92 371.03,607.37 C371.02,607.13 370.92,606.83 370.75,606.51 C370.94,606.75 371.14,607.00 371.34,607.25 C375.43,612.30 377.53,612.97 382.70,610.86 ZM 672.39 539.42 C673.33,536.98 673.11,534.00 672.00,534.00 C671.45,534.00 671.00,534.53 671.00,535.19 C671.00,535.84 670.02,537.41 668.83,538.69 L 666.65 541.00 L 669.22 541.00 C670.64,541.00 672.06,540.29 672.39,539.42 ZM 578.79 332.53 C577.83,332.22 576.63,332.00 575.71,332.00 C574.44,332.00 572.97,331.63 572.45,331.17 C571.46,330.31 568.17,329.27 560.24,327.42 C561.24,327.63 562.19,327.84 563.00,328.03 C565.47,328.63 569.37,329.46 571.66,329.88 C573.95,330.31 576.88,331.34 578.16,332.17 C578.33,332.28 578.54,332.40 578.79,332.53 ZM 517.54 632.63 C506.73,637.47 503.06,639.00 502.41,639.01 C502.37,639.01 502.33,639.01 502.28,639.02 C503.36,638.56 504.47,638.10 505.50,637.68 C510.61,635.57 514.49,633.95 517.54,632.63 ZM 485.00 706.03 C485.01,706.03 485.03,706.04 485.05,706.05 C482.62,705.70 480.29,705.33 478.15,704.98 C478.59,705.00 479.01,705.01 479.40,705.02 C481.65,705.02 484.17,705.48 485.00,706.03 ZM 391.80 664.56 C393.60,665.64 395.13,665.96 398.32,665.69 L 394.26 666.27 ZM 365.64 599.21 C366.90,601.36 368.06,603.06 369.68,605.16 C369.63,605.11 369.58,605.06 369.52,605.02 C368.71,604.34 367.42,602.60 366.66,601.14 C366.29,600.45 365.96,599.81 365.64,599.21 ZM 479.68 326.07 C477.20,326.60 474.66,327.21 471.81,327.97 C473.33,327.52 474.64,327.13 475.40,326.90 C476.60,326.53 478.29,326.21 479.68,326.07 ZM 429.90 688.41 C435.02,690.95 438.65,692.71 441.63,694.04 C438.39,692.72 433.93,690.54 429.90,688.41 ZM 479.11 300.89 C473.12,302.03 467.07,303.43 461.50,304.94 C467.71,303.23 474.15,301.72 479.11,300.89 ZM 454.79 599.70 C458.03,598.95 460.86,598.27 462.12,597.94 C463.23,597.65 464.72,597.39 466.17,597.22 C464.81,597.45 463.58,597.68 462.50,597.93 C461.10,598.26 458.12,598.94 454.79,599.70 ZM 420.00 682.27 C420.00,680.92 421.90,680.39 429.50,679.58 C422.02,680.37 419.03,681.10 420.57,682.90 C420.21,682.61 420.01,682.39 420.00,682.27 ZM 452.50 698.07 C454.70,698.74 457.40,699.61 458.50,700.02 C459.60,700.44 462.52,701.33 465.00,702.00 C466.21,702.33 467.62,702.73 468.94,703.11 C467.02,702.56 464.36,701.84 463.00,701.48 C461.62,701.13 459.60,700.48 458.50,700.06 C457.40,699.63 454.70,698.74 452.50,698.07 ZM 419.40 662.68 C421.22,662.41 422.82,662.17 424.00,662.00 C427.58,661.49 433.11,660.38 436.30,659.54 C439.04,658.81 441.91,658.20 443.24,658.04 C441.91,658.20 439.04,658.81 436.30,659.54 C433.11,660.39 427.80,661.47 424.50,661.94 C423.32,662.11 421.53,662.37 419.40,662.68 ZM 444.30 338.07 C439.40,340.22 435.25,342.16 434.00,342.97 C435.42,342.04 439.46,340.16 444.30,338.07 ZM 450.04 308.45 C448.00,309.16 446.14,309.88 444.50,310.58 C442.85,311.29 438.58,313.05 435.00,314.49 C438.58,313.05 442.85,311.29 444.50,310.57 C446.02,309.90 447.91,309.18 450.04,308.45 ZM 480.54 647.12 C478.06,647.98 476.13,648.67 475.50,648.93 C474.40,649.39 470.35,650.69 466.50,651.81 C470.35,650.69 474.40,649.38 475.50,648.92 C476.17,648.64 478.12,647.95 480.54,647.12 ZM 502.48 618.25 C501.16,618.80 500.50,619.00 500.20,619.00 C500.50,619.00 501.24,618.76 502.48,618.25 ZM 362.80 594.15 C362.98,594.45 363.15,594.74 363.29,594.99 C363.13,594.70 362.96,594.42 362.80,594.15 Z" fill="rgb(44,42,168)"/>
<path d="M 485.00 706.03 C484.17,705.48 481.65,705.02 479.40,705.02 C477.14,705.01 473.99,704.60 472.40,704.12 C470.80,703.63 467.48,702.68 465.00,702.00 C462.52,701.33 459.60,700.44 458.50,700.02 C457.40,699.61 454.70,698.74 452.50,698.07 C445.83,696.06 442.11,694.47 429.75,688.34 C417.05,682.03 417.02,680.90 429.50,679.58 C432.25,679.29 436.64,678.59 439.25,678.03 C441.86,677.46 445.91,676.58 448.25,676.08 C450.59,675.57 454.30,674.63 456.50,674.00 C458.70,673.37 462.30,672.50 464.50,672.07 C466.70,671.64 470.52,670.55 473.00,669.66 C475.48,668.76 478.42,668.02 479.55,668.01 C480.68,668.01 482.03,667.64 482.55,667.20 C483.07,666.77 485.30,665.84 487.50,665.14 C489.70,664.44 492.40,663.51 493.50,663.07 C500.59,660.23 506.64,658.00 507.24,658.00 C507.63,658.00 510.40,656.88 513.41,655.50 C516.41,654.12 519.14,653.00 519.46,653.00 C521.67,653.00 564.46,631.69 573.59,626.05 C591.49,614.98 601.85,608.18 609.46,602.50 C613.88,599.20 618.02,596.28 618.65,596.00 C625.33,593.09 678.11,543.77 685.53,533.50 C687.12,531.30 690.46,527.16 692.96,524.30 C695.46,521.45 698.78,517.51 700.35,515.56 C701.91,513.60 703.61,512.26 704.11,512.57 C706.56,514.08 702.71,544.17 697.97,560.50 C697.34,562.70 696.58,565.97 696.30,567.76 C696.01,569.55 695.38,571.27 694.89,571.57 C694.40,571.87 694.00,573.00 694.00,574.07 C694.00,575.15 693.60,576.81 693.12,577.76 C692.63,578.72 691.79,580.62 691.24,582.00 C685.03,597.69 673.42,618.71 664.99,629.50 C663.27,631.70 660.35,635.53 658.49,638.00 C653.44,644.75 633.16,664.08 625.36,669.59 C621.59,672.25 618.28,674.73 618.00,675.10 C616.76,676.77 588.51,692.00 586.67,692.00 C586.29,692.00 584.07,692.84 581.74,693.87 C579.41,694.90 575.47,696.33 573.00,697.05 C570.53,697.77 568.05,698.66 567.50,699.02 C566.95,699.39 564.25,700.28 561.50,701.00 C558.75,701.72 556.01,702.69 555.41,703.15 C552.74,705.19 539.53,706.31 514.00,706.65 C496.80,706.88 485.94,706.65 485.00,706.03 ZM 389.00 662.59 C383.94,658.82 375.39,650.26 376.06,649.64 C376.30,649.42 382.58,648.72 390.00,648.10 C412.30,646.22 433.10,642.06 456.50,634.81 C474.44,629.26 480.85,627.06 485.44,624.87 C487.60,623.84 489.76,623.00 490.24,623.00 C490.71,623.00 492.96,622.10 495.24,621.00 C497.51,619.90 499.75,619.00 500.20,619.00 C501.13,619.00 505.44,617.08 521.87,609.35 C528.13,606.41 533.46,604.00 533.71,604.00 C533.97,604.00 537.10,602.37 540.67,600.37 C549.74,595.29 548.38,594.49 528.44,593.14 C515.64,592.28 508.92,592.35 495.34,593.50 C485.96,594.29 477.07,595.40 475.58,595.97 C474.09,596.54 471.26,597.00 469.30,597.00 C467.34,597.00 464.10,597.42 462.12,597.94 C460.13,598.46 454.23,599.85 449.00,601.03 C443.77,602.22 437.02,603.86 434.00,604.68 C430.98,605.51 426.92,606.53 425.00,606.95 C421.91,607.63 416.80,609.41 410.50,612.01 C409.40,612.46 407.60,613.05 406.50,613.32 C402.69,614.25 389.50,619.25 388.55,620.12 C388.03,620.61 387.05,621.00 386.38,621.00 C385.70,621.00 380.29,623.28 374.35,626.07 C359.42,633.08 358.93,633.13 355.39,628.08 C353.80,625.81 350.44,621.16 347.92,617.73 C343.53,611.76 332.00,591.59 332.00,589.88 C332.00,589.43 331.10,587.46 330.00,585.50 C328.90,583.54 328.00,581.50 328.00,580.96 C328.00,580.42 327.15,578.07 326.11,575.74 C321.38,565.12 320.72,562.99 317.52,548.00 C316.64,543.88 315.20,537.46 314.33,533.74 C311.84,523.09 312.15,481.04 314.83,467.00 C317.25,454.33 320.03,443.57 322.97,435.50 C324.18,432.20 325.86,427.48 326.72,425.00 C328.56,419.74 339.51,398.26 343.61,391.90 C353.01,377.30 368.83,359.07 381.07,348.72 C394.09,337.72 398.74,334.00 399.49,334.00 C399.83,334.00 402.71,332.24 405.88,330.08 C415.56,323.51 424.51,318.72 435.00,314.49 C438.58,313.05 442.85,311.29 444.50,310.58 C453.73,306.61 470.15,302.26 485.00,299.85 C489.12,299.18 501.50,298.64 512.50,298.65 C533.62,298.66 541.49,299.54 560.00,303.96 C561.92,304.42 565.60,305.28 568.17,305.87 C570.74,306.47 575.81,308.31 579.44,309.97 C583.08,311.64 586.38,313.00 586.78,313.01 C587.65,313.01 604.72,321.46 607.43,323.24 C608.49,323.93 611.96,326.09 615.14,328.04 C635.47,340.51 658.94,363.75 671.51,383.88 C672.07,384.77 674.10,387.98 676.02,391.00 C679.17,395.94 684.92,407.24 686.97,412.50 C687.40,413.60 688.66,416.52 689.77,419.00 C692.66,425.42 693.40,427.79 697.61,444.00 C698.53,447.58 699.45,452.98 699.64,456.00 L 699.99 461.50 L 696.93 453.00 C693.99,444.85 692.30,440.97 684.90,425.50 C679.97,415.20 667.37,396.83 657.85,386.07 C650.50,377.77 640.86,368.77 629.58,359.69 C618.53,350.80 598.33,339.42 587.31,335.88 C583.56,334.67 579.45,333.01 578.16,332.17 C576.88,331.34 573.95,330.31 571.66,329.88 C569.37,329.46 565.47,328.63 563.00,328.03 C560.53,327.44 556.70,326.68 554.50,326.34 C552.30,326.00 549.15,325.00 547.50,324.11 C544.94,322.74 540.35,322.50 516.50,322.50 C491.44,322.50 488.24,322.68 486.03,324.25 C484.67,325.21 482.37,326.00 480.93,326.00 C479.48,326.00 476.99,326.40 475.40,326.90 C473.80,327.39 469.80,328.56 466.50,329.50 C459.65,331.46 437.75,340.53 434.00,342.97 C432.62,343.87 430.38,345.14 429.00,345.81 C427.62,346.48 425.33,347.80 423.91,348.76 C422.48,349.72 419.33,351.83 416.91,353.46 C399.78,364.99 380.29,383.86 370.50,398.40 C369.40,400.03 367.83,402.37 367.00,403.59 C363.81,408.30 356.20,421.69 354.54,425.50 C353.58,427.70 351.89,431.52 350.80,434.00 C346.66,443.32 346.15,444.67 344.10,451.50 C338.79,469.17 337.10,481.52 337.13,502.50 C337.14,519.10 338.02,528.97 340.41,539.50 C342.29,547.81 345.69,559.31 347.50,563.50 C348.21,565.15 349.26,567.62 349.83,569.00 C353.00,576.64 358.52,587.89 360.37,590.49 C362.45,593.40 363.83,595.74 366.66,601.14 C367.42,602.60 368.71,604.34 369.52,605.02 C370.33,605.69 371.01,606.75 371.03,607.37 C371.08,608.92 375.65,614.00 377.00,614.00 C377.61,614.00 381.12,612.47 384.80,610.60 C388.49,608.74 394.65,606.00 398.50,604.53 C402.35,603.06 406.85,601.27 408.50,600.56 C412.46,598.84 418.81,596.70 428.00,594.00 C440.02,590.47 441.16,590.18 448.00,588.96 C457.67,587.24 463.34,585.46 464.08,583.89 C464.45,583.13 466.26,579.19 468.12,575.15 C474.08,562.13 485.67,552.42 500.51,548.03 C504.54,546.83 518.63,547.08 524.50,548.44 C531.40,550.05 540.58,555.55 546.52,561.63 C549.85,565.05 553.06,568.89 553.65,570.17 C554.23,571.45 555.68,574.46 556.86,576.84 C558.04,579.23 559.00,582.00 559.00,582.99 C559.00,584.97 560.90,586.00 564.57,586.00 C566.88,586.00 577.15,580.42 577.83,578.79 C578.02,578.36 578.67,578.00 579.28,578.00 C579.89,578.00 581.99,576.94 583.95,575.65 C611.93,557.15 632.28,542.94 635.00,540.00 C635.28,539.70 636.62,538.72 638.00,537.83 C640.59,536.14 661.12,519.25 662.00,518.08 C662.28,517.71 666.33,514.23 671.00,510.34 C681.35,501.72 708.41,474.16 723.86,456.49 C734.76,444.03 738.72,440.23 735.85,445.01 C731.70,451.89 728.81,456.18 726.83,458.36 C725.90,459.39 724.55,461.43 723.82,462.90 C721.10,468.41 696.45,499.03 683.99,512.38 C676.73,520.16 651.69,544.70 646.00,549.61 C643.53,551.75 641.28,553.77 641.00,554.09 C639.96,555.33 612.20,576.77 605.63,581.42 C594.49,589.29 584.28,596.00 583.42,596.00 C582.99,596.00 581.70,596.86 580.56,597.90 C579.43,598.95 576.81,600.75 574.75,601.90 C568.99,605.13 565.00,607.42 559.05,610.95 C556.05,612.73 548.85,616.61 543.05,619.58 C537.25,622.55 530.66,626.06 528.41,627.38 C524.56,629.65 519.97,631.71 505.50,637.68 C502.20,639.04 498.15,640.76 496.50,641.50 C494.85,642.24 489.90,644.03 485.50,645.47 C481.10,646.91 476.60,648.46 475.50,648.92 C474.40,649.38 470.35,650.69 466.50,651.81 C462.65,652.94 456.34,654.80 452.47,655.93 C448.61,657.07 444.69,658.00 443.77,658.00 C442.85,658.00 439.49,658.69 436.30,659.54 C433.11,660.38 427.58,661.49 424.00,662.00 C420.42,662.52 413.00,663.62 407.50,664.45 C394.20,666.46 394.18,666.46 389.00,662.59 ZM 446.32 568.71 C433.87,562.31 435.75,560.68 449.30,566.13 C454.79,568.34 457.01,569.72 456.80,570.80 C456.30,573.37 454.82,573.08 446.32,568.71 ZM 567.53 572.05 C566.43,570.27 567.72,569.30 575.43,566.09 C588.33,560.72 590.06,562.40 577.92,568.50 C568.16,573.40 568.33,573.34 567.53,572.05 ZM 554.75 553.44 C552.91,551.55 554.43,548.77 560.17,543.58 C566.50,537.86 568.00,537.03 568.00,539.30 C568.00,541.17 555.64,554.35 554.75,553.44 ZM 462.62 546.87 C457.48,541.18 455.13,536.77 458.25,538.63 C461.13,540.35 471.01,550.46 470.71,551.38 C469.90,553.80 467.87,552.67 462.62,546.87 ZM 486.73 536.25 C485.91,534.19 484.98,530.47 484.67,528.00 C484.36,525.53 484.36,524.40 484.67,525.50 C484.98,526.60 485.52,527.72 485.87,528.00 C487.06,528.94 490.00,536.07 490.00,538.03 C490.00,541.21 488.34,540.30 486.73,536.25 ZM 533.74 538.75 C533.33,537.55 535.42,531.79 538.57,525.50 C540.02,522.59 540.05,522.69 539.41,528.50 C538.56,536.31 535.06,542.62 533.74,538.75 ZM 509.20 520.80 C508.35,519.95 508.00,513.84 508.00,499.67 L 508.00 479.74 L 504.53 475.90 C502.61,473.78 500.75,470.87 500.39,469.42 C499.58,466.20 502.12,460.48 505.56,457.78 L 508.00 455.85 L 508.00 417.46 C508.00,381.91 508.13,379.00 509.75,378.15 C510.75,377.63 512.47,377.60 513.75,378.09 L 516.00 378.94 L 516.00 417.29 L 516.00 455.65 L 518.60 458.08 C525.60,464.62 525.64,470.01 518.75,477.04 L 516.00 479.85 L 516.00 499.72 C516.00,520.08 515.66,522.00 512.00,522.00 C511.12,522.00 509.86,521.46 509.20,520.80 ZM 376.25 467.38 C375.56,467.08 375.00,465.97 375.00,464.92 C375.00,463.14 375.83,463.00 385.94,463.00 C396.70,463.00 400.49,464.11 395.81,465.88 C392.93,466.97 377.94,468.12 376.25,467.38 ZM 627.01 466.03 C624.22,464.26 627.36,463.24 637.00,462.78 C647.91,462.25 649.00,462.46 649.00,465.08 C649.00,466.85 648.19,467.00 638.75,466.98 C633.11,466.98 627.83,466.55 627.01,466.03 ZM 761.20 428.95 C760.54,427.89 760.00,426.25 760.00,425.30 C760.00,424.35 758.99,420.91 757.75,417.65 C755.21,410.96 749.00,404.00 743.82,402.05 C742.00,401.36 739.60,400.43 738.50,399.99 C737.40,399.55 734.74,398.53 732.58,397.74 L 728.67 396.29 L 734.58 394.48 C749.40,389.94 755.18,384.52 759.06,371.50 C761.04,364.89 761.91,363.00 762.98,363.00 C763.54,363.00 764.00,364.32 764.00,365.94 C764.00,367.56 764.45,369.16 765.00,369.50 C765.55,369.84 766.00,371.39 766.00,372.95 C766.00,378.88 777.16,391.16 783.83,392.56 C785.30,392.87 787.28,393.54 788.24,394.06 C789.19,394.58 790.85,395.00 791.93,395.00 C796.36,395.00 794.28,396.71 785.44,400.35 C780.29,402.46 774.94,405.33 773.55,406.72 C769.96,410.31 764.00,423.76 764.00,428.26 C764.00,430.74 762.54,431.10 761.20,428.95 ZM 423.91 390.84 C416.85,383.52 415.56,381.00 418.87,381.00 C421.09,381.00 435.34,395.64 434.48,397.04 C433.14,399.20 430.47,397.64 423.91,390.84 ZM 590.00 396.48 C590.00,394.20 604.43,379.53 605.83,380.39 C608.26,381.90 606.79,384.76 600.22,391.28 C593.68,397.77 590.00,399.64 590.00,396.48 ZM 510.62 360.44 C510.28,359.56 510.00,354.82 510.00,349.92 C510.00,341.67 510.15,341.00 512.00,341.00 C513.86,341.00 514.00,341.67 514.00,350.38 C514.00,357.14 513.61,360.08 512.62,360.90 C511.55,361.79 511.09,361.69 510.62,360.44 Z" fill="rgb(239,239,243)"/>
</g>
</svg>